<svg width="15" height="15.6" viewBox="0 0 15 15.6" fill="none" xmlns="http://www.w3.org/2000/svg">
<path d="M1.5 12.75V4.5V12.75C1.5 12.5 1.5 12.4062 1.5 12.4688C1.5 12.5312 1.5 12.625 1.5 12.75ZM1.5 14.25C1.0875 14.25 0.734375 14.1031 0.440625 13.8094C0.146875 13.5156 0 13.1625 0 12.75V4.5C0 4.0875 0.146875 3.73438 0.440625 3.44062C0.734375 3.14687 1.0875 3 1.5 3H4.5V1.5C4.5 1.0875 4.64688 0.734375 4.94063 0.440625C5.23438 0.146875 5.5875 0 6 0H9C9.4125 0 9.76562 0.146875 10.0594 0.440625C10.3531 0.734375 10.5 1.0875 10.5 1.5V3H13.5C13.9125 3 14.2656 3.14687 14.5594 3.44062C14.8531 3.73438 15 4.0875 15 4.5V7.70625C14.775 7.54375 14.5375 7.40313 14.2875 7.28438C14.0375 7.16563 13.775 7.0625 13.5 6.975V4.5H1.5V12.75H6.80625C6.84375 13.0125 6.9 13.2688 6.975 13.5188C7.05 13.7688 7.14375 14.0125 7.25625 14.25H1.5ZM6 3H9V1.5H6V3ZM12 15.75C10.9625 15.75 10.0781 15.3844 9.34688 14.6531C8.61563 13.9219 8.25 13.0375 8.25 12C8.25 10.9625 8.61563 10.0781 9.34688 9.34688C10.0781 8.61563 10.9625 8.25 12 8.25C13.0375 8.25 13.9219 8.61563 14.6531 9.34688C15.3844 10.0781 15.75 10.9625 15.75 12C15.75 13.0375 15.3844 13.9219 14.6531 14.6531C13.9219 15.3844 13.0375 15.75 12 15.75ZM12.375 11.85V9.75H11.625V12.15L13.2375 13.7625L13.7625 13.2375L12.375 11.85Z" fill="#9CABBA"/>
</svg>
