<svg width="11" height="11" viewBox="0 0 11 11" fill="none" xmlns="http://www.w3.org/2000/svg">
<path d="M1.16667 10.5C0.845833 10.5 0.571181 10.3858 0.342708 10.1573C0.114236 9.92882 0 9.65417 0 9.33333V1.16667C0 0.845833 0.114236 0.571181 0.342708 0.342708C0.571181 0.114236 0.845833 0 1.16667 0H5.25V1.16667H1.16667V9.33333H9.33333V5.25H10.5V9.33333C10.5 9.65417 10.3858 9.92882 10.1573 10.1573C9.92882 10.3858 9.65417 10.5 9.33333 10.5H1.16667ZM3.90833 7.40833L3.09167 6.59167L8.51667 1.16667H6.41667V0H10.5V4.08333H9.33333V1.98333L3.90833 7.40833Z" fill="#1E8DF6"/>
</svg>
