<svg width="48" height="48" viewBox="0 0 48 48" fill="none" xmlns="http://www.w3.org/2000/svg">
<rect width="48" height="48" rx="8" fill="#111518"/>
<path d="M31.95 33C29.8667 33 27.8083 32.5458 25.775 31.6375C23.7417 30.7292 21.8917 29.4417 20.225 27.775C18.5583 26.1083 17.2708 24.2583 16.3625 22.225C15.4542 20.1917 15 18.1333 15 16.05C15 15.75 15.1 15.5 15.3 15.3C15.5 15.1 15.75 15 16.05 15H20.1C20.3333 15 20.5417 15.0792 20.725 15.2375C20.9083 15.3958 21.0167 15.5833 21.05 15.8L21.7 19.3C21.7333 19.5667 21.725 19.7917 21.675 19.975C21.625 20.1583 21.5333 20.3167 21.4 20.45L18.975 22.9C19.3083 23.5167 19.7042 24.1125 20.1625 24.6875C20.6208 25.2625 21.125 25.8167 21.675 26.35C22.1917 26.8667 22.7333 27.3458 23.3 27.7875C23.8667 28.2292 24.4667 28.6333 25.1 29L27.45 26.65C27.6 26.5 27.7958 26.3875 28.0375 26.3125C28.2792 26.2375 28.5167 26.2167 28.75 26.25L32.2 26.95C32.4333 27.0167 32.625 27.1375 32.775 27.3125C32.925 27.4875 33 27.6833 33 27.9V31.95C33 32.25 32.9 32.5 32.7 32.7C32.5 32.9 32.25 33 31.95 33ZM18.025 21L19.675 19.35L19.25 17H17.025C17.1083 17.6833 17.225 18.3583 17.375 19.025C17.525 19.6917 17.7417 20.35 18.025 21ZM26.975 29.95C27.625 30.2333 28.2875 30.4583 28.9625 30.625C29.6375 30.7917 30.3167 30.9 31 30.95V28.75L28.65 28.275L26.975 29.95Z" fill="#1E8DF6"/>
</svg>
