<svg width="48" height="48" viewBox="0 0 48 48" fill="none" xmlns="http://www.w3.org/2000/svg">
<rect width="48" height="48" rx="8" fill="#111518"/>
<path d="M20 22.6875L22.6875 19.9688L20.9375 18.1875L19.5625 19.5625L17.8125 17.8125L19.1562 16.4375L17.75 15.0312L15.0312 17.75L20 22.6875ZM30.25 32.9688L32.9688 30.25L31.5625 28.8438L30.1875 30.1875L28.4375 28.4375L29.7812 27.0625L28 25.3125L25.3125 28L30.25 32.9688ZM31 15.25L32.7812 17.0312L31 15.25ZM18.0625 35.25H12.75V29.9375L18.2188 24.4688L11.5 17.75L17.75 11.5L24.5 18.25L29.2188 13.5C29.4688 13.25 29.75 13.0625 30.0625 12.9375C30.375 12.8125 30.6979 12.75 31.0312 12.75C31.3646 12.75 31.6875 12.8125 32 12.9375C32.3125 13.0625 32.5938 13.25 32.8438 13.5L34.5 15.1875C34.75 15.4375 34.9375 15.7188 35.0625 16.0312C35.1875 16.3438 35.25 16.6667 35.25 17C35.25 17.3333 35.1875 17.651 35.0625 17.9531C34.9375 18.2552 34.75 18.5312 34.5 18.7812L29.7812 23.5312L36.5 30.25L30.25 36.5L23.5312 29.7812L18.0625 35.25ZM15.25 32.75H17L29.25 20.5312L27.4688 18.75L15.25 31V32.75ZM28.375 19.6562L27.4688 18.75L29.25 20.5312L28.375 19.6562Z" fill="#1E8DF6"/>
</svg>
