<svg width="17" height="12" viewBox="0 0 17 12" fill="none" xmlns="http://www.w3.org/2000/svg">
<path d="M1.5 12C1.0875 12 0.734375 11.8531 0.440625 11.5594C0.146875 11.2656 0 10.9125 0 10.5V1.5C0 1.0875 0.146875 0.734375 0.440625 0.440625C0.734375 0.146875 1.0875 0 1.5 0H6L7.5 1.5H13.5C13.9125 1.5 14.2656 1.64687 14.5594 1.94062C14.8531 2.23437 15 2.5875 15 3H6.88125L5.38125 1.5H1.5V1.5V1.5V10.5V10.5V10.5L3.3 4.5H16.125L14.1938 10.9312C14.0938 11.2562 13.9094 11.5156 13.6406 11.7094C13.3719 11.9031 13.075 12 12.75 12H1.5V12M3.075 10.5H12.75L14.1 6H4.425L3.075 10.5V10.5M3.075 10.5L4.425 6V6L3.075 10.5V10.5V10.5M1.5 3V1.5V1.5V1.5V1.5V3V3V3" fill="#9CABBA"/>
</svg>
