<svg width="17" height="15" viewBox="0 0 17 15" fill="none" xmlns="http://www.w3.org/2000/svg">
<path d="M8.175 15L11.5875 6H13.1625L16.575 15H15L14.1938 12.7125H10.5562L9.75 15H8.175ZM2.25 12.75L1.2 11.7L4.9875 7.9125C4.55 7.475 4.15312 6.975 3.79688 6.4125C3.44062 5.85 3.1125 5.2125 2.8125 4.5H4.3875C4.6375 4.9875 4.8875 5.4125 5.1375 5.775C5.3875 6.1375 5.6875 6.5 6.0375 6.8625C6.45 6.45 6.87813 5.87188 7.32188 5.12813C7.76562 4.38438 8.1 3.675 8.325 3H0V1.5H5.25V0H6.75V1.5H12V3H9.825C9.5625 3.9 9.16875 4.825 8.64375 5.775C8.11875 6.725 7.6 7.45 7.0875 7.95L8.8875 9.7875L8.325 11.325L6.0375 8.98125L2.25 12.75ZM11.025 11.4H13.725L12.375 7.575L11.025 11.4Z" fill="#1E8DF6"/>
</svg>
