<svg width="15" height="12" viewBox="0 0 15 12" fill="none" xmlns="http://www.w3.org/2000/svg">
<path d="M1.5 12C1.0875 12 0.734375 11.8531 0.440625 11.5594C0.146875 11.2656 0 10.9125 0 10.5V1.5C0 1.0875 0.146875 0.734375 0.440625 0.440625C0.734375 0.146875 1.0875 0 1.5 0H13.5C13.9125 0 14.2656 0.146875 14.5594 0.440625C14.8531 0.734375 15 1.0875 15 1.5V10.5C15 10.9125 14.8531 11.2656 14.5594 11.5594C14.2656 11.8531 13.9125 12 13.5 12H1.5ZM7.5 6.75L1.5 3V10.5H13.5V3L7.5 6.75ZM7.5 5.25L13.5 1.5H1.5L7.5 5.25ZM1.5 3V1.5V3V10.5V3Z" fill="#9CABBA"/>
</svg>
