<svg width="48" height="48" viewBox="0 0 48 48" fill="none" xmlns="http://www.w3.org/2000/svg">
<rect width="48" height="48" rx="8" fill="#111518"/>
<path d="M11.5 34V31.5H24V34H11.5ZM15.25 30.25C14.5625 30.25 13.974 30.0052 13.4844 29.5156C12.9948 29.026 12.75 28.4375 12.75 27.75V16.5C12.75 15.8125 12.9948 15.224 13.4844 14.7344C13.974 14.2448 14.5625 14 15.25 14H32.75C33.4375 14 34.026 14.2448 34.5156 14.7344C35.0052 15.224 35.25 15.8125 35.25 16.5H15.25V27.75H24V30.25H15.25ZM34 31.5V21.5H29V31.5H34ZM28.375 34C27.8542 34 27.4115 33.8177 27.0469 33.4531C26.6823 33.0885 26.5 32.6458 26.5 32.125V20.875C26.5 20.3542 26.6823 19.9115 27.0469 19.5469C27.4115 19.1823 27.8542 19 28.375 19H34.625C35.1458 19 35.5885 19.1823 35.9531 19.5469C36.3177 19.9115 36.5 20.3542 36.5 20.875V32.125C36.5 32.6458 36.3177 33.0885 35.9531 33.4531C35.5885 33.8177 35.1458 34 34.625 34H28.375ZM31.5 24.625C31.7708 24.625 31.9948 24.5312 32.1719 24.3438C32.349 24.1562 32.4375 23.9375 32.4375 23.6875C32.4375 23.4167 32.349 23.1927 32.1719 23.0156C31.9948 22.8385 31.7708 22.75 31.5 22.75C31.25 22.75 31.0312 22.8385 30.8438 23.0156C30.6562 23.1927 30.5625 23.4167 30.5625 23.6875C30.5625 23.9375 30.6562 24.1562 30.8438 24.3438C31.0312 24.5312 31.25 24.625 31.5 24.625Z" fill="#1E8DF6"/>
</svg>
