<svg width="14" height="14" viewBox="0 0 14 14" fill="none" xmlns="http://www.w3.org/2000/svg">
<path d="M6.75 13.5C5.025 13.5 3.52187 12.9281 2.24062 11.7844C0.959375 10.6406 0.225 9.2125 0.0375 7.5H1.575C1.75 8.8 2.32812 9.875 3.30938 10.725C4.29063 11.575 5.4375 12 6.75 12C8.2125 12 9.45312 11.4906 10.4719 10.4719C11.4906 9.45312 12 8.2125 12 6.75C12 5.2875 11.4906 4.04688 10.4719 3.02813C9.45312 2.00938 8.2125 1.5 6.75 1.5C5.8875 1.5 5.08125 1.7 4.33125 2.1C3.58125 2.5 2.95 3.05 2.4375 3.75H4.5V5.25H0V0.75H1.5V2.5125C2.1375 1.7125 2.91562 1.09375 3.83437 0.65625C4.75312 0.21875 5.725 0 6.75 0C7.6875 0 8.56562 0.178125 9.38437 0.534375C10.2031 0.890625 10.9156 1.37188 11.5219 1.97812C12.1281 2.58437 12.6094 3.29688 12.9656 4.11562C13.3219 4.93437 13.5 5.8125 13.5 6.75C13.5 7.6875 13.3219 8.56562 12.9656 9.38437C12.6094 10.2031 12.1281 10.9156 11.5219 11.5219C10.9156 12.1281 10.2031 12.6094 9.38437 12.9656C8.56562 13.3219 7.6875 13.5 6.75 13.5ZM8.85 9.9L6 7.05V3H7.5V6.45L9.9 8.85L8.85 9.9Z" fill="#1E8DF6"/>
</svg>
